<svg height="60" viewBox="0 0 61 60" width="61" xmlns="http://www.w3.org/2000/svg"><g id="Page-1" fill="none" fill-rule="evenodd"><g id="003---Quill" fill-rule="nonzero"><path id="Shape" d="m8.16 41.54c-.36 1.25-.65 2.46-.91 3.6-.65649812 2.9145025-1.07454658 5.87763-1.25 8.86l-5 5c.22774671-4.2873441 1.60979091-8.4334767 4-12 .85-1.28 1.32-1.99 1.67-2.59.48-.81.75-1.4 1.49-2.87z" fill="#a4c2f7"/><path id="Shape" d="m47 23c-14 9-11.29 4.44-19 16-5.9 8.85-15.67 9-20.75 6.14.26-1.14.55-2.35.91-3.6-.74 1.47-1.01 2.06-1.49 2.87-2.7559685-5.3781752-3.35335288-11.6059968-1.67-17.41 3-10 12-17 23-18s22 3 31-8c0 0 2 13-12 22z" fill="#e8edfc"/><path id="Shape" d="m59 1c-.8896663 1.09339302-1.8756169 2.10477895-2.946 3.022-.286 4.378-2.228 12.661-12.054 18.978-14 9-11.29 4.44-19 16-2.7282689 4.3477836-7.3102803 7.1932286-12.417 7.711 6.1818418.5421493 12.1429819-2.4393874 15.417-7.711 7.71-11.56 5-7 19-16s12-22 12-22z" fill="#cad9fc"/><path id="Shape" d="m1 59 3.436-3.436c.42022628-2.0078511 1.08729479-3.9559867 1.986-5.8.186-1.324.449-2.892.828-4.627.48798164.267164.99346762.5010306 1.513.7l.014-.02c.54498041-.8234222.63353067-1.8675616.235-2.771-6.543-14.646 3.533-32.368 21.988-34.046 1.062-.1 2.125-.146 3.187-.167-2.0638356-.05418495-4.1290925.00156063-6.187.167-19.027 1.73-29.149 20.511-21.33 35.41-.35.6-.82 1.31-1.67 2.59-2.39020909 3.5665233-3.77225329 7.7126559-4 12z" fill="#fff"/><path id="Shape" d="m20.6 11.744-.729-1.864c2.5788724-.99740366 5.2842787-1.63016849 8.038-1.88l.182 2c-2.5659078.2304235-5.0871697.8174053-7.491 1.744z" fill="#fff"/><g fill="#428dff"><path id="Shape" d="m24.072 10.639c-.5522847.0027614-1.0022386-.4427153-1.005-.995-.0027614-.55228475.4427153-1.00223858.995-1.005h.01c.5522847 0 1 .44771525 1 1 0 .5522847-.4477153 1-1 1z"/><path id="Shape" d="m59.263.035c-.3808966-.10372057-.7871657.02634821-1.037.332-6.436 7.866-13.983 7.694-21.965 7.508-2.78398-.10048026-5.5712746-.05875929-8.351.125-.2656415.02282355-.5111698.15078313-.6820405.35545245s-.252934.46909961-.2279595.73454755c.0132932.1157394.0471586.2281727.1.332-.7695475.9735496-1.4395639 2.0217902-2 3.129-.1607695.3193954-.1389312.7002985.0572886.9992267s.5370106.4704672.894.45c.3569893-.0204672.6759419-.2298313.8367114-.5492267.6437799-1.2756207 1.4505292-2.4622145 2.4-3.53 2.311-.137 4.646-.1 6.917-.044.8.019 1.605.036 2.409.046-.2408639.5979765-.439354 1.2121598-.594 1.838-.086101.3469049.0194099.7133926.2767879.9614107.2573779.2480181.627521.3398868.971.241.3434789-.0988868.6081111-.3735058.6942121-.7204107.1932862-.8048907.4805942-1.5842472.856-2.322 5.976-.091 11.936-1.069 17.249-6.4-.313 6.888-4.016 13.762-11.69 18.687-1.0129622-.1145296-1.9837329-.4701245-2.831-1.037-.4595009-.306518-1.0804819-.1825009-1.387.277-.306518.4595009-.1825009 1.080482.277 1.387.5107752.3345985 1.05629.6128881 1.627.83-2.786 1.721-4.767 2.816-6.29 3.655-1.8667875.8840628-3.5771671 2.0661972-5.064 3.5-1.7882239.2425084-3.6087486-.0028081-5.269-.71-.4937426-.2485281-1.0954718-.0497425-1.344.444-.2485281.4937426-.0497425 1.0954719.444 1.344 1.396108.6517486 2.9192718.9860933 4.46.979-.881 1.177-1.929 2.721-3.32 4.8-2.5 1.106-6.044 2.019-9.234.427-.493494-.2412059-1.0891622-.039214-1.3341516.4524127-.2449894.4916268-.0475788 1.0888289.4421516 1.3375873 1.4514757.7171206 3.0510993 1.0832871 4.67 1.069 1.1134098-.0083639 2.2216246-.1527677 3.3-.43-4.2203245 4.9285519-11.1382833 6.5715873-17.124 4.067.206-.885.437-1.8.706-2.75 5.694-15.134 12.642-17.2 22.256-20.064 5.9814304-1.5757745 11.7397239-3.9012004 17.138-6.921.3254784-.1702629.5314125-.5052613.5363839-.8725499s-.1918202-.7077381-.5125711-.886748c-.3207508-.1790098-.7138237-.1677615-1.0238128.0292979-5.2618448 2.9376808-10.8726386 5.2011489-16.7 6.737-9.782 2.911-17.51 5.212-23.553 21.267l-.507 1.012c-1.97913722-4.8094622-2.2220409-10.1579397-.687-15.127.24880504.8932823.62572017 1.7458043 1.119 2.531.30651804.4595009.92749908.583518 1.38699999.277.4595009-.306518.58351803-.9274991.27700001-1.387-.79812863-1.4622844-1.29236363-3.0708441-1.453-4.729.241-.5.494-1 .769-1.482.94584328-1.5798543 2.0541959-3.0565405 3.307-4.406.9159834-.9280073 1.8993309-1.7870158 2.942-2.57-.9142172 2.1306984-1.3906602 4.4234742-1.401 6.742 0 .5522847.4477153 1 1 1s1-.4477153 1-1c.0414326-3.2141562 1.039174-6.3431515 2.866-8.988.888-.4666667 1.798-.8893333 2.73-1.268.5068078-.190912.7658069-.7539343.581-1.263-.0924463-.2536458-.2824982-.4597822-.5278153-.57248529-.2453172-.11270313-.5255203-.12261043-.7781847-.02751471-3.7246031 1.4521592-7.0904466 3.6938942-9.866 6.571-2.75200739 2.9146004-4.79282649 6.426055-5.963 10.26-1.72560629 5.8642536-1.19665267 12.1617622 1.483 17.656-.313.5-.726 1.13-1.357 2.077-2.50695935 3.7272416-3.94816117 8.0684818-4.168 12.555.01012671.5480353.45196467.9898733 1 1h10c.5522847 0 1-.4477153 1-1s-.4477153-1-1-1h-7.586l3.293-3.293c.1789814-.1785834.28367198-.4183355.293-.671.14893302-2.4985867.47474914-4.9834777.975-7.436 1.93194152.7866887 4.0000729 1.1846154 6.086 1.171 6.0078044-.0235477 11.5838584-3.1262211 14.771-8.219 5.293-7.94 5.467-8.035 9.916-10.486 1.952-1.076 4.627-2.549 8.793-5.228 14.381-9.238 12.533-22.433 12.447-22.99-.0599077-.39039489-.343986-.7089545-.725-.813zm-54.242 53.53-2.708 2.707c.56601576-3.0543603 1.72850387-5.9672068 3.421-8.572-.34412351 1.9405826-.58214371 3.8984908-.713 5.865z"/><path id="Shape" d="m47 60c.5522847 0 1-.4477153 1-1s-.4477153-1-1-1h-32c-.5522847 0-1 .4477153-1 1s.4477153 1 1 1z"/></g></g></g></svg>